<svg id="SVGRoot" xmlns="http://www.w3.org/2000/svg" viewBox="0 0 659.84 570.34"><defs><style>.cls-1{fill:#fff;}</style></defs><title>email</title><g id="polyline197"><path class="cls-1" d="M649.42,571.83h-636A10.41,10.41,0,0,1,3,561.5l-3-386a10.44,10.44,0,0,1,6.53-9.75l144-58a10.42,10.42,0,0,1,7.78,19.33L20.89,182.43,23.75,551H639L637,182.43,501.48,127.06a10.42,10.42,0,1,1,7.88-19.29l142,58a10.42,10.42,0,0,1,6.47,9.59l2,386a10.41,10.41,0,0,1-10.41,10.47Z"/></g><g id="polyline199"><path class="cls-1" d="M649.41,571.83a10.37,10.37,0,0,1-6.13-2L331.42,342.31,19.56,569.83A10.42,10.42,0,1,1,7.28,553l318-232a10.41,10.41,0,0,1,12.28,0l318,232a10.42,10.42,0,0,1-6.15,18.83Z"/></g><g id="line201"><rect class="cls-1" x="131.5" y="112.2" width="20.83" height="324.43" transform="translate(-162.08 219.36) rotate(-52.39)"/></g><g id="line203"><rect class="cls-1" x="357.21" y="263.5" width="325.41" height="20.83" transform="translate(-59.72 370.67) rotate(-37.26)"/></g><g id="polyline205"><path class="cls-1" d="M504.42,296.83A10.41,10.41,0,0,1,494,286.42V20.83H166.83V283.42a10.42,10.42,0,0,1-20.83,0v-273A10.41,10.41,0,0,1,156.42,0h348a10.41,10.41,0,0,1,10.41,10.42v276A10.41,10.41,0,0,1,504.42,296.83Z"/></g><g id="line207"><path class="cls-1" d="M456.42,78.83h-193a10.42,10.42,0,1,1,0-20.83h193a10.42,10.42,0,0,1,0,20.83Z"/></g><g id="line209"><path class="cls-1" d="M456.42,145.83h-254a10.42,10.42,0,1,1,0-20.83h254a10.42,10.42,0,0,1,0,20.83Z"/></g><g id="line211"><path class="cls-1" d="M456.42,212.83h-254a10.42,10.42,0,1,1,0-20.83h254a10.42,10.42,0,0,1,0,20.83Z"/></g><g id="line213"><path class="cls-1" d="M456.42,279.83h-254a10.42,10.42,0,1,1,0-20.83h254a10.42,10.42,0,0,1,0,20.83Z"/></g></svg>