<?xml version="1.0" standalone="no"?>
<!DOCTYPE svg PUBLIC "-//W3C//DTD SVG 20010904//EN"
 "http://www.w3.org/TR/2001/REC-SVG-20010904/DTD/svg10.dtd">
<svg version="1.0" xmlns="http://www.w3.org/2000/svg"
 width="700.000000pt" height="700.000000pt" viewBox="0 0 700.000000 700.000000"
 preserveAspectRatio="xMidYMid meet">
<metadata>
Created by potrace 1.11, written by Peter Selinger 2001-2013
</metadata>
<g transform="translate(0.000000,700.000000) scale(0.100000,-0.100000)"
fill="#000000" stroke="none">
<path d="M511 6974 c-12 -15 -21 -29 -21 -33 0 -5 60 -385 75 -472 3 -19 10
-59 15 -89 5 -30 12 -75 15 -100 3 -25 8 -52 10 -60 2 -8 7 -40 10 -70 4 -30
8 -58 10 -61 2 -3 6 -27 10 -55 3 -27 7 -56 10 -64 2 -8 7 -35 10 -60 7 -52
12 -84 25 -160 5 -30 12 -75 15 -100 3 -25 8 -52 10 -60 2 -8 6 -33 9 -55 4
-22 8 -51 11 -65 3 -14 7 -42 9 -62 3 -21 10 -63 15 -95 6 -32 13 -76 16 -98
3 -22 10 -65 15 -95 5 -30 12 -73 15 -95 4 -22 8 -47 10 -55 2 -8 7 -35 10
-60 3 -25 10 -70 15 -100 5 -30 12 -73 15 -95 3 -22 14 -92 25 -155 10 -63 21
-133 25 -155 3 -22 8 -53 10 -70 3 -16 7 -41 9 -55 2 -14 7 -41 10 -60 11 -63
22 -133 41 -250 5 -31 17 -108 20 -135 11 -74 57 -353 60 -365 2 -8 7 -37 11
-65 9 -73 11 -91 20 -137 4 -24 8 -52 10 -63 1 -11 14 -92 28 -180 38 -230 76
-464 82 -505 3 -19 8 -48 11 -65 8 -47 12 -77 18 -120 2 -22 7 -51 10 -65 2
-14 7 -38 9 -55 3 -16 12 -70 20 -120 9 -49 18 -106 20 -125 3 -19 7 -48 10
-65 3 -16 7 -48 11 -70 3 -23 7 -50 9 -60 5 -24 46 -280 51 -315 3 -23 11 -70
20 -130 44 -273 48 -283 88 -296 12 -4 64 -26 115 -50 52 -24 95 -44 97 -44 2
0 41 -18 87 -39 45 -22 263 -120 483 -219 220 -99 429 -193 465 -210 36 -16
157 -71 270 -122 378 -170 337 -145 405 -248 51 -77 65 -92 93 -98 41 -8 49
-1 123 107 l60 87 172 78 c95 42 296 133 447 201 151 69 295 134 320 145 25
11 68 30 95 43 28 12 160 72 295 133 135 61 279 126 320 145 41 18 109 49 150
67 41 19 81 38 87 44 12 11 24 62 38 156 3 25 19 124 35 220 16 96 40 252 55
345 15 94 28 181 31 195 12 74 47 288 49 305 13 90 27 179 35 225 5 30 12 70
15 88 3 17 7 44 10 60 19 114 28 172 32 202 2 19 8 58 13 85 6 28 12 68 15 90
3 22 8 51 10 65 3 14 7 39 9 55 5 32 16 98 66 415 17 107 33 206 35 220 10 64
35 217 39 235 2 11 6 41 10 66 4 25 9 57 11 70 2 13 13 85 25 159 12 74 32
200 45 280 13 80 27 165 30 190 3 25 12 81 20 125 8 44 17 98 20 120 3 22 10
65 15 95 5 30 12 71 14 90 3 19 12 76 20 125 15 96 56 347 61 380 2 11 5 38 9
60 3 22 15 96 26 165 27 160 25 148 54 335 14 88 37 230 51 315 13 85 27 173
30 195 3 22 10 63 15 90 12 61 9 78 -15 105 -24 26 -58 26 -88 -2 -14 -13
-152 -189 -309 -393 -156 -203 -348 -453 -426 -555 -79 -102 -152 -196 -163
-210 -11 -14 -32 -42 -47 -62 -29 -40 -36 -43 -327 -133 -66 -21 -232 -72
-368 -115 l-248 -77 6 36 c4 29 23 127 59 306 7 32 108 538 112 559 2 11 17
88 34 171 43 212 43 218 19 243 -11 13 -32 22 -49 22 -31 0 -64 -36 -415 -465
-77 -93 -142 -172 -145 -175 -3 -3 -90 -107 -194 -232 l-187 -228 -249 0 -249
0 -361 438 c-199 240 -372 448 -383 462 -12 14 -55 65 -95 113 -62 73 -78 87
-103 87 -30 0 -61 -26 -65 -56 -2 -9 6 -58 16 -108 11 -50 21 -104 24 -121 3
-16 33 -167 67 -335 33 -168 63 -316 65 -330 2 -14 9 -45 14 -70 5 -25 12 -56
14 -70 3 -14 14 -71 25 -128 12 -57 21 -108 21 -113 0 -5 -17 -2 -37 5 -36 14
-691 219 -814 255 -63 18 -28 -22 -337 379 -62 81 -125 162 -140 181 -15 19
-62 80 -105 135 -385 501 -459 595 -473 600 -31 12 -53 6 -73 -20z m279 -449
c37 -49 159 -207 269 -350 111 -143 247 -320 304 -393 56 -74 111 -144 122
-157 19 -23 248 -98 915 -301 113 -35 129 -44 131 -74 0 -8 2 -22 4 -30 5 -28
37 -195 41 -220 3 -14 14 -73 25 -132 33 -174 32 -168 30 -184 -1 -10 -147 28
-411 106 -182 53 -540 150 -556 150 -30 0 -53 -21 -60 -56 -9 -49 34 -78 146
-99 3 -1 30 -8 60 -18 30 -9 80 -23 110 -31 68 -18 223 -61 310 -87 36 -10
146 -42 245 -70 99 -28 183 -54 187 -57 3 -4 9 -23 12 -42 3 -19 15 -84 26
-145 11 -60 23 -123 26 -140 2 -16 10 -58 18 -92 l13 -63 -26 7 c-14 3 -232
64 -484 135 -251 70 -466 128 -476 128 -22 0 -61 -44 -61 -69 0 -39 37 -57
226 -110 603 -167 857 -240 864 -248 16 -16 574 -560 619 -602 73 -70 91 -69
174 12 35 34 178 172 317 307 139 135 263 255 274 267 15 16 62 34 146 58 69
19 163 46 210 59 47 14 110 32 140 40 30 8 145 40 255 72 110 31 205 57 210
58 114 22 158 60 134 118 -23 55 25 65 -799 -167 -124 -35 -227 -61 -229 -59
-3 2 5 57 18 122 12 64 24 131 27 147 3 17 7 35 8 40 2 6 9 45 16 88 10 64 17
80 34 87 12 5 118 36 236 69 876 245 786 216 799 250 16 38 0 78 -35 87 -14 4
-44 1 -67 -6 -22 -6 -47 -13 -56 -15 -9 -2 -56 -15 -106 -29 -49 -14 -137 -38
-195 -54 -58 -17 -204 -58 -325 -92 -253 -71 -241 -68 -238 -55 2 12 41 230
47 260 2 11 7 40 12 65 4 25 8 47 9 50 1 3 9 51 19 107 10 56 22 106 25 111 6
8 95 38 431 142 74 22 182 56 240 74 58 19 160 51 228 72 l123 38 57 75 c32
42 96 126 143 186 47 61 116 151 154 200 39 50 73 95 77 100 5 6 34 44 66 85
32 41 120 155 196 253 75 97 138 177 140 177 1 0 -5 -44 -15 -99 -9 -54 -20
-118 -23 -142 -3 -24 -8 -53 -10 -64 -2 -11 -9 -51 -15 -90 -32 -203 -52 -333
-56 -357 -3 -16 -7 -43 -10 -60 -3 -18 -7 -44 -10 -58 -2 -14 -7 -41 -9 -60
-3 -19 -7 -44 -10 -55 -2 -11 -7 -42 -10 -70 -4 -27 -25 -158 -46 -290 -22
-132 -42 -258 -45 -280 -3 -22 -8 -51 -10 -65 -3 -14 -7 -43 -11 -65 -3 -22
-7 -51 -10 -65 -8 -49 -25 -155 -29 -180 -4 -30 -34 -215 -40 -250 -3 -14 -12
-70 -20 -126 -8 -55 -21 -138 -29 -185 -8 -46 -18 -104 -21 -129 -6 -46 -30
-90 -140 -260 -34 -52 -246 -385 -472 -740 -226 -355 -551 -865 -723 -1135
-172 -269 -320 -502 -329 -517 -9 -15 -106 -168 -216 -340 -425 -667 -516
-808 -524 -808 -9 0 -64 82 -221 330 -78 124 -157 248 -175 275 -149 229 -515
809 -515 815 0 5 -3 10 -8 12 -4 2 -54 77 -111 168 -58 91 -128 201 -156 245
-119 185 -451 707 -465 730 -8 14 -180 284 -382 600 l-367 575 -10 73 c-6 39
-13 83 -16 97 -2 14 -7 41 -9 60 -3 19 -21 136 -41 260 -20 124 -38 234 -40
245 -1 11 -6 40 -9 64 -3 23 -8 55 -11 70 -8 47 -46 285 -50 311 -2 14 -18
111 -35 215 -37 226 -36 217 -44 280 -4 28 -11 73 -16 100 -5 28 -11 66 -14
85 -6 38 -44 272 -50 305 -2 11 -7 43 -10 70 -10 67 -12 85 -30 190 -8 50 -18
110 -21 135 -3 25 -8 52 -10 60 -2 8 -7 35 -10 60 -4 24 -9 49 -12 55 -9 20
59 -61 127 -150z m1706 -151 c23 -27 75 -89 116 -139 40 -49 139 -169 219
-265 79 -96 189 -230 244 -297 67 -82 109 -125 128 -130 33 -10 574 -9 602 1
11 4 113 120 227 259 114 139 221 268 237 287 16 19 77 94 136 165 157 190
165 199 165 186 0 -7 -18 -101 -40 -209 -21 -109 -42 -213 -45 -232 -3 -19
-12 -63 -20 -98 -8 -34 -17 -77 -20 -95 -3 -17 -12 -63 -20 -102 -8 -38 -16
-81 -19 -95 -2 -14 -16 -83 -31 -155 -14 -71 -28 -141 -30 -155 -5 -30 -11
-62 -30 -160 -8 -41 -17 -91 -20 -110 -3 -19 -8 -42 -10 -50 -2 -8 -7 -31 -10
-50 -3 -19 -17 -96 -31 -170 -14 -74 -32 -171 -40 -215 -8 -44 -21 -114 -29
-155 -26 -140 -43 -235 -50 -270 -27 -159 -16 -140 -154 -275 -69 -68 -166
-162 -216 -210 -49 -48 -127 -124 -173 -168 l-83 -81 -72 71 c-40 39 -106 104
-148 144 -42 41 -144 140 -226 220 l-150 146 -17 89 c-9 49 -19 103 -22 119
-3 17 -19 104 -35 195 -17 91 -33 176 -36 190 -21 121 -165 878 -168 890 -2 8
-7 29 -9 45 -3 17 -30 154 -60 305 -30 151 -57 289 -60 305 -3 17 -19 97 -36
178 -33 164 -35 179 -17 156 7 -9 31 -38 53 -65z m-1290 -2846 c41 -65 383
-601 477 -748 30 -47 249 -391 487 -765 238 -374 447 -702 465 -730 105 -158
554 -869 552 -872 -3 -2 -123 50 -282 122 -59 27 -485 219 -765 345 -157 70
-312 140 -345 155 -93 43 -177 80 -212 95 -27 12 -33 21 -42 70 -6 30 -13 75
-16 100 -3 25 -19 124 -34 220 -25 147 -46 281 -66 410 -2 14 -15 93 -29 175
-13 83 -27 168 -30 190 -3 22 -8 51 -11 65 -2 14 -7 43 -10 65 -3 22 -12 81
-21 130 -17 100 -18 107 -39 250 -3 22 -13 81 -22 130 -8 50 -16 99 -17 110
-4 28 -33 211 -62 386 -13 81 -24 149 -24 153 0 14 9 3 46 -56z m4620 -34 c-9
-49 -18 -107 -21 -129 -3 -22 -13 -83 -21 -135 -9 -52 -18 -108 -20 -125 -3
-16 -7 -43 -10 -60 -3 -16 -7 -43 -10 -60 -2 -16 -6 -41 -9 -55 -2 -14 -7 -41
-9 -60 -3 -19 -8 -45 -10 -57 -3 -11 -7 -43 -11 -70 -3 -26 -10 -70 -15 -98
-5 -27 -11 -66 -14 -85 -6 -41 -35 -224 -77 -480 -37 -227 -36 -224 -45 -285
-3 -27 -8 -59 -10 -70 -2 -11 -9 -49 -15 -85 -5 -36 -12 -76 -14 -90 -2 -14
-13 -81 -24 -150 -29 -185 -30 -192 -36 -225 -4 -16 -7 -30 -8 -31 -1 0 -339
-153 -752 -338 -412 -186 -779 -351 -814 -367 -35 -16 -65 -28 -67 -26 -3 2
742 1179 850 1342 18 28 71 110 117 182 46 73 101 159 121 190 21 32 47 74 58
93 11 19 73 117 138 218 64 100 256 400 426 667 170 267 311 484 313 481 2 -2
-3 -44 -11 -92z"/>
<path d="M2010 3642 c-22 -8 -38 -27 -45 -54 -5 -18 4 -38 31 -79 59 -86 165
-240 198 -287 17 -24 49 -52 75 -65 26 -13 80 -41 121 -64 41 -22 116 -62 165
-88 50 -26 113 -60 142 -76 105 -58 207 -109 218 -109 23 0 65 41 65 63 0 12
-30 85 -66 162 -36 77 -84 178 -105 225 -22 47 -48 101 -58 120 -18 33 -65 65
-108 75 -10 2 -103 29 -208 60 -352 105 -411 121 -425 117z m467 -267 l162
-47 14 -37 c14 -33 102 -223 115 -245 3 -6 -10 -1 -29 11 -19 11 -92 51 -164
89 -280 147 -257 131 -314 213 -73 103 -73 103 -4 81 32 -9 131 -39 220 -65z"/>
<path d="M4958 3645 c-2 -3 -150 -48 -329 -100 -178 -52 -334 -103 -347 -113
-13 -9 -52 -80 -88 -157 -36 -77 -88 -187 -116 -245 -65 -136 -69 -160 -32
-189 36 -28 51 -25 183 48 58 32 151 82 206 111 55 29 136 72 180 95 44 24 97
52 118 63 20 11 46 30 56 43 28 36 229 327 240 348 16 30 -2 74 -36 88 -17 6
-33 10 -35 8z m-214 -278 c-63 -93 -35 -73 -313 -218 -38 -20 -94 -50 -125
-67 -31 -18 -60 -32 -64 -32 -5 0 17 53 48 118 32 65 60 128 64 139 5 16 31
28 119 53 62 18 159 47 217 65 58 17 107 30 108 29 2 -1 -22 -41 -54 -87z"/>
<path d="M3250 5173 c-22 -8 -40 -34 -40 -59 0 -40 229 -826 246 -845 9 -11
29 -19 44 -19 53 0 46 -20 214 575 42 149 76 280 76 292 0 12 -10 31 -22 43
-21 19 -33 20 -262 19 -133 -1 -248 -4 -256 -6z m382 -143 c-10 -56 -130 -461
-134 -454 -3 5 -25 77 -48 159 -23 83 -51 179 -61 214 -31 104 -39 98 114 97
110 -1 132 -4 129 -16z"/>
</g>
</svg>
